<svg width="200" height="200" viewBox="0 0 200 200" fill="none" xmlns="http://www.w3.org/2000/svg">
  <!-- 外层六边形 - 渐变色 -->
  <defs>
    <linearGradient id="hexGradient" x1="0%" y1="0%" x2="100%" y2="100%">
      <stop offset="0%" style="stop-color:#61DAFB;stop-opacity:1" />
      <stop offset="100%" style="stop-color:#2D6CDF;stop-opacity:1" />
    </linearGradient>
    <filter id="shadow">
      <feDropShadow dx="0" dy="4" stdDeviation="6" flood-opacity="0.2"/>
    </filter>
  </defs>

  <!-- 外层六边形 -->
  <path d="M100 20L170 60V140L100 180L30 140V60L100 20Z"
        fill="url(#hexGradient)"
        stroke="#2D6CDF"
        stroke-width="3"
        filter="url(#shadow)"/>

  <!-- 内层六边形 -->
  <path d="M100 50L140 72V128L100 150L60 128V72L100 50Z"
        fill="white"
        stroke="#2D6CDF"
        stroke-width="2"/>

  <!-- 中心蜂巢图标 -->
  <circle cx="100" cy="100" r="20" fill="#2D6CDF"/>

  <!-- N 字母 -->
  <path d="M90 90 L90 110 L100 100 L110 110 L110 90"
        stroke="white"
        stroke-width="4"
        stroke-linecap="round"
        stroke-linejoin="round"
        fill="none"/>

  <!-- 装饰点 -->
  <circle cx="100" cy="70" r="3" fill="#4B7EE8"/>
  <circle cx="125" cy="85" r="3" fill="#4B7EE8"/>
  <circle cx="125" cy="115" r="3" fill="#4B7EE8"/>
  <circle cx="100" cy="130" r="3" fill="#4B7EE8"/>
  <circle cx="75" cy="115" r="3" fill="#4B7EE8"/>
  <circle cx="75" cy="85" r="3" fill="#4B7EE8"/>
</svg>
